<svg width="27" height="31" viewBox="0 0 27 31" fill="none" xmlns="http://www.w3.org/2000/svg">
<path fill-rule="evenodd" clip-rule="evenodd" d="M19.8568 0C18.2511 0.0654211 16.3055 1.03905 15.154 2.34805C14.1188 3.51053 13.2153 5.36579 13.4589 7.1447C15.2516 7.28092 17.0783 6.26072 18.1942 4.95105C19.3079 3.63903 20.062 1.81826 19.8568 0ZM19.403 30.9586C21.5786 30.9193 22.9565 29.0411 24.2887 27.1513C25.7483 25.0813 26.3929 23.0743 26.489 22.775C26.4944 22.7584 26.498 22.747 26.5 22.7412C26.499 22.7408 26.4963 22.7397 26.492 22.738C26.2827 22.6554 22.2558 21.0662 22.2158 16.4725C22.1764 12.679 25.2931 10.7919 25.6362 10.5842C25.6481 10.577 25.6567 10.5718 25.6617 10.5686C23.7857 7.90573 20.8647 7.5406 19.824 7.4989C18.3037 7.34968 16.8288 7.91375 15.6237 8.37463C14.8579 8.66751 14.2011 8.91871 13.7108 8.91871C13.1651 8.91871 12.4903 8.65874 11.733 8.36699C10.7417 7.98513 9.60909 7.54882 8.43982 7.5697C5.73151 7.60905 3.23226 9.09968 1.8375 11.4556C-0.979069 16.1996 1.1152 23.2291 3.85912 27.0757C5.20223 28.9569 6.79929 31.0743 8.89962 30.998C9.83741 30.9615 10.5048 30.6856 11.195 30.4003C11.9927 30.0706 12.8209 29.7283 14.1321 29.7283C15.381 29.7283 16.1708 30.06 16.9306 30.3791C17.6572 30.6843 18.3562 30.9779 19.403 30.9586Z" fill="white"/>
</svg>
